<svg width="142" height="51" viewBox="0 0 142 51" fill="none" xmlns="http://www.w3.org/2000/svg">
<g id="Group 4056">
<g id="Group 2046">
<path id="&#232;&#183;&#175;&#229;&#190;&#132; 4 1" d="M19.1784 27.5201C19.0694 26.6625 18.6335 25.9121 17.8708 25.3761L0.653808 13.7989C0.435872 13.6917 0.217936 13.6917 0.108968 13.9061C0 14.0133 0 14.1205 0 14.1205V36.739C0 37.8109 0.54484 38.7757 1.52555 39.3117L20.9219 50.3529C21.1398 50.4601 21.3577 50.3529 21.4667 50.2457C21.4667 50.1385 21.5757 50.0313 21.4667 50.0313L19.1784 27.5201Z" fill="#4385FF"/>
<path id="&#232;&#183;&#175;&#229;&#190;&#132; 5 1" d="M24.082 22.0557L44.459 13.1584C44.7859 12.944 45.0038 12.6224 44.7859 12.1936C44.7859 12.0864 44.6769 11.9792 44.568 11.9792L44.1321 11.6576L24.4089 0.401987C23.5371 -0.133996 22.3385 -0.133996 21.4667 0.401987L1.52559 11.6576C1.30765 11.7648 1.19868 11.872 1.08971 11.9792C0.762809 12.1936 0.762809 12.7296 0.980745 12.944C1.08971 13.0512 1.08971 13.1584 1.19868 13.1584L21.6847 22.0557C22.4474 22.3773 23.3192 22.3773 24.082 22.0557Z" fill="#18D1FF"/>
<path id="&#232;&#183;&#175;&#229;&#190;&#132; 6 1" d="M26.1514 27.8435L23.7542 50.2476C23.7542 50.462 23.8631 50.6764 24.0811 50.6764C24.19 50.6764 24.19 50.6764 24.299 50.6764L44.2401 39.3135C45.1119 38.7776 45.7657 37.8128 45.7657 36.7408V14.2296C45.7657 14.0152 45.5478 13.8008 45.3298 13.8008C45.2209 13.8008 45.2209 13.8008 45.1119 13.908L27.4591 25.8068C26.8053 26.2356 26.2604 26.9859 26.1514 27.8435Z" fill="#68F2DA"/>
</g>
<g id="Group 2032">
<path id="Vector" d="M84.1074 43.5916L81.6721 39.7197C80.548 40.4572 79.6114 41.3791 78.862 41.9322L76.8013 38.7978C77.176 38.429 77.3633 38.0603 77.5507 37.6915C77.738 37.3227 77.738 36.7696 77.738 36.2165V32.3445H74.5533V33.2664C74.5533 35.479 74.1786 37.3227 73.6166 38.7978C73.0546 40.2728 71.9306 41.7478 70.4319 43.4072C69.4952 42.1166 68.5585 41.0103 67.6219 39.904V43.4072H63.5005V29.9476C62.5638 31.0539 61.6271 32.1602 60.8778 32.8977C60.6904 31.9758 60.3158 30.6851 59.9411 29.0257C59.7537 28.657 59.5664 28.2882 59.5664 28.1039C61.0651 26.6288 62.3764 24.9694 63.5005 23.31C64.6245 21.6506 65.7485 19.6225 66.6852 17.4099L69.8699 19.4381V10.0348H72.6799V16.1193H74.5533V7.45352H78.3V16.1193H80.1734V10.0348H83.1708V18.885C83.9201 17.4099 84.6694 15.5662 85.2314 13.7224C85.7935 11.8786 86.3555 9.66606 86.9175 6.90039L91.0389 7.45352C90.4769 9.66606 89.9149 11.5098 89.5402 13.1692H96.4716V17.4099H94.9729C94.7856 20.7287 94.4109 23.6788 93.8489 26.0757C93.2869 28.657 92.5376 30.8695 91.6009 32.8977C92.7249 34.7415 94.4109 36.5852 96.659 38.6134C95.9096 40.2728 95.1603 41.7478 94.5983 43.2228C92.5376 41.1947 90.8515 39.1665 89.3528 37.1384C88.2288 38.9821 86.5428 41.1947 84.1074 43.5916ZM61.6271 20.36C61.4398 19.4381 60.8778 18.3318 60.3158 16.8568C60.1284 16.3037 59.9411 15.9349 59.7537 15.7505C61.0651 14.4599 62.3764 13.1692 63.3131 11.8786C64.4371 10.5879 65.3738 8.92855 66.3105 7.08477L69.8699 9.66606C68.5585 12.063 67.2472 13.9068 65.9358 15.5662C64.6245 17.2256 63.3131 18.885 61.6271 20.36ZM67.6219 39.904C68.9332 38.7978 69.6826 37.6915 70.0572 36.4009C70.4319 35.2946 70.6192 33.4508 70.6192 31.0539V28.657H81.6721V35.1102C81.8594 34.9258 82.2341 34.7415 82.6087 34.3727C83.3581 33.8196 83.7328 33.4508 84.1074 33.0821C84.1074 34.3727 84.2948 35.479 84.2948 36.5852C85.4188 35.479 86.3555 34.1883 87.1048 32.8977C85.9808 30.3164 85.2315 27.182 84.8568 23.6788L83.9201 25.1538C83.7328 24.9694 83.5454 24.4163 83.3581 23.6788C83.1708 23.31 83.1708 23.1256 82.9834 22.9413V26.2601H69.8699V22.3881H82.7961L82.0467 20.7287L82.4214 19.9912H69.8699C69.3079 21.0975 68.5585 22.3881 67.6219 24.2319V39.904ZM89.5402 28.1039C90.4769 25.5226 91.0389 22.0194 91.4135 17.4099H88.2288C88.2288 17.5943 88.0415 17.7787 87.8542 18.1474C88.2288 22.2038 88.7908 25.5226 89.5402 28.1039Z" fill="#4385FF"/>
<path id="Vector_2" d="M108.466 43.776C108.279 43.5916 108.092 43.4072 107.717 43.0385C106.593 41.9322 105.844 41.0103 105.282 40.4572C106.031 38.7978 106.593 37.1384 106.78 35.6633C106.968 34.1883 107.155 31.7914 107.155 28.8414V15.013H117.833V30.3164C120.643 29.2101 122.517 28.1038 123.828 26.9976H118.77V23.8632H126.263C126.638 23.4944 127.013 22.7569 127.2 22.2038H119.894V18.885H123.453C123.079 18.5162 122.329 17.7787 121.205 16.8568C120.831 16.6724 120.643 16.3037 120.456 16.3037L123.266 14.4599C124.577 15.5662 125.889 16.488 126.825 17.4099L124.577 18.885H127.762C127.949 17.7787 127.949 16.3037 127.949 14.6443H132.258C132.258 16.3037 132.071 17.7787 132.071 18.885H135.068L133.382 17.4099C134.506 16.488 135.63 15.3818 136.942 14.0911L139.564 16.3037C138.628 17.2256 137.504 18.1474 136.567 18.885H140.501V22.0194H131.509C131.321 22.5725 131.134 23.1256 130.947 23.6788H141.438V27.182H135.818C136.567 27.9195 137.504 28.4726 138.44 29.0257C139.377 29.5789 140.688 29.9476 142 30.3164L140.876 34.0039C140.876 34.0039 140.688 34.0039 140.688 33.8196C139.564 33.4508 138.815 33.0821 138.44 32.8977C137.316 33.6352 136.192 34.1883 134.881 34.9258C137.129 35.8477 139.564 36.954 142 38.0603L140.126 41.5634C138.815 40.8259 137.129 39.904 135.068 38.7978C133.944 38.2446 133.195 37.8759 132.633 37.5071L134.693 34.9258L132.82 32.5289L135.63 30.8695C134.131 29.7632 133.007 28.4726 131.883 26.9976H129.635C128.511 28.2882 127.2 29.5789 125.139 30.8695L127.949 32.1602L126.263 34.5571C126.638 35.479 127.2 36.2165 127.949 36.954C126.825 37.5071 124.952 38.2446 122.704 39.3509C121.58 39.904 120.831 40.2728 120.081 40.6415L118.208 37.5071C120.831 36.5852 123.079 35.479 125.139 34.7415C124.952 34.5571 124.765 34.5571 124.39 34.3727C123.266 33.8196 122.329 33.2664 121.767 32.8977L119.332 34.1883C119.145 33.8196 118.957 33.4508 118.583 32.7133C118.395 32.1602 118.208 31.607 118.021 31.4227V39.5353C118.021 40.6415 117.833 41.5634 117.271 42.1166C116.897 42.6697 116.147 43.0385 115.023 43.0385C113.712 43.0385 112.588 43.2228 111.464 43.2228C111.464 43.0385 111.276 42.8541 111.276 42.4853C110.902 41.1947 110.714 40.2728 110.527 39.7197C111.089 39.7197 111.839 39.7197 112.775 39.7197C113.712 39.7197 114.087 39.3509 114.087 38.429V33.6352H111.089C110.902 35.6633 110.714 37.5071 110.34 38.9821C109.965 40.2728 109.403 41.9322 108.466 43.776ZM115.585 14.4599V12.8005H105.656V9.11293H115.585V6.90039H120.269V9.2973H127.2V6.90039H131.883V9.2973H141.812V12.9849H131.883V14.2755H127.2V12.8005H120.269V14.2755H115.585V14.4599ZM111.276 22.7569H114.087V18.7006H111.276V22.7569ZM111.276 30.132H114.087V26.0757H111.276V28.657V30.132ZM124.203 43.0385C124.203 42.6697 124.015 42.3009 123.828 41.7478C123.641 40.8259 123.453 40.2728 123.266 39.7197C124.015 39.7197 124.952 39.7197 126.263 39.7197C126.825 39.7197 127.387 39.5353 127.575 39.3509C127.762 39.1665 127.949 38.6134 127.949 38.0603V29.2101H132.071V38.9821C132.071 40.2728 131.696 41.1947 131.134 41.9322C130.572 42.6697 129.635 43.0385 128.324 43.0385C127.387 43.0385 126.076 43.0385 124.203 43.0385Z" fill="#4385FF"/>
</g>
</g>
</svg>
