<svg width="18" height="16" viewBox="0 0 18 16" fill="none" xmlns="http://www.w3.org/2000/svg">
<g id="Frame" clip-path="url(#clip0_255_128)">
<path id="Vector" d="M0.200098 14.6991C-0.0999023 14.9991 -0.0999023 15.3991 0.200098 15.5991C0.400098 15.7991 0.800098 15.8991 1.1001 15.5991L7.9001 8.7991C8.4001 8.2991 8.4001 7.4991 7.9001 6.9991L1.1001 0.199105C0.800098 -0.000895277 0.400098 -0.100895 0.200098 0.199105C-0.0999023 0.499105 -0.0999023 0.899105 0.200098 1.0991L6.5001 7.4991C6.8001 7.7991 6.8001 8.1991 6.5001 8.3991L0.200098 14.6991ZM9.0001 14.6991C8.7001 14.9991 8.7001 15.3991 9.0001 15.5991C9.2001 15.7991 9.6001 15.8991 9.9001 15.5991L16.7001 8.7991C17.2001 8.2991 17.2001 7.4991 16.7001 6.9991L9.9001 0.199105C9.7001 -0.000895277 9.3001 -0.100895 9.0001 0.199105C8.8001 0.399105 8.8001 0.799105 9.0001 1.0991L15.3001 7.4991C15.6001 7.7991 15.6001 8.1991 15.3001 8.3991L9.0001 14.6991Z" fill="white"/>
</g>
<defs>
<clipPath id="clip0_255_128">
<rect width="17.1" height="15.8" fill="white"/>
</clipPath>
</defs>
</svg>
