<svg width="37" height="31" viewBox="0 0 37 31" fill="none" xmlns="http://www.w3.org/2000/svg">
<g id="Group 4058">
<path id="Vector" d="M24.71 24.5991C24.6575 24.6512 24.6171 24.714 24.5915 24.7833C24.5659 24.8526 24.5557 24.9266 24.5618 25.0002C24.5678 25.0738 24.5899 25.1452 24.6264 25.2094C24.663 25.2736 24.7131 25.329 24.7734 25.3718C25.873 26.4011 26.5809 27.7801 26.776 29.2732C26.8773 29.6447 27.0782 29.9815 27.3569 30.2474C27.6357 30.5132 27.9818 30.698 28.3579 30.7817C28.734 30.8655 29.1259 30.845 29.4912 30.7226C29.8565 30.6002 30.1815 30.3804 30.431 30.087C30.6806 29.7936 30.8453 29.4377 30.9073 29.0576C30.9694 28.6776 30.9264 28.2878 30.7831 27.9304C30.6398 27.5729 30.4016 27.2613 30.0942 27.0292C29.7867 26.7971 29.4217 26.6532 29.0385 26.6132C27.6469 26.3531 26.3785 25.6459 25.4261 24.5991C25.3311 24.5044 25.2023 24.4512 25.0681 24.4512C24.9338 24.4512 24.805 24.5044 24.71 24.5991V24.5991Z" fill="#FB6500"/>
<path id="Vector_2" d="M33.303 21.2482C32.96 21.5902 32.7452 22.0397 32.6946 22.5212C32.4374 23.9133 31.7319 25.1832 30.6856 26.1375C30.6341 26.1868 30.5936 26.2464 30.5667 26.3124C30.5398 26.3784 30.5272 26.4493 30.5296 26.5205C30.532 26.5918 30.5494 26.6617 30.5807 26.7257C30.6119 26.7897 30.6564 26.8465 30.7111 26.8922C30.7658 26.9379 30.8295 26.9715 30.8981 26.991C30.9667 27.0104 31.0387 27.0151 31.1092 27.0049C31.1798 26.9946 31.2474 26.9696 31.3076 26.9315C31.3679 26.8933 31.4194 26.8429 31.4588 26.7835C32.4884 25.6841 33.8685 24.9767 35.3627 24.7822C35.6761 24.6974 35.9657 24.5418 36.2093 24.3272C36.4529 24.1127 36.6438 23.845 36.7673 23.545C36.8908 23.2449 36.9436 22.9205 36.9215 22.5968C36.8995 22.273 36.8032 21.9587 36.6402 21.6781C36.4772 21.3976 36.2518 21.1582 35.9814 20.9786C35.711 20.799 35.4028 20.684 35.0809 20.6424C34.7589 20.6009 34.4316 20.6339 34.1244 20.7389C33.8172 20.844 33.5384 21.0182 33.3093 21.2482H33.303Z" fill="#0082EF"/>
<path id="Vector_3" d="M27.3399 15.2834C27.0579 15.5659 26.8616 15.9223 26.7736 16.3115C26.6857 16.7008 26.7097 17.1069 26.8429 17.4831C26.9761 17.8592 27.2131 18.19 27.5264 18.4374C27.8397 18.6847 28.2167 18.8384 28.6137 18.8808C30.0067 19.1378 31.2775 19.8428 32.2324 20.8884C32.2817 20.9399 32.3413 20.9804 32.4073 21.0072C32.4734 21.0341 32.5444 21.0468 32.6156 21.0444C32.6869 21.042 32.7568 21.0246 32.8209 20.9933C32.885 20.962 32.9418 20.9176 32.9875 20.863C33.0332 20.8083 33.0669 20.7446 33.0863 20.676C33.1058 20.6075 33.1105 20.5356 33.1003 20.4651C33.09 20.3946 33.065 20.327 33.0268 20.2668C32.9887 20.2066 32.9382 20.1551 32.8788 20.1158C31.7791 19.0865 31.0713 17.7075 30.8762 16.2144C30.7774 15.8581 30.5868 15.5339 30.3235 15.2741C30.0602 15.0143 29.7334 14.828 29.3756 14.7339C29.0178 14.6397 28.6416 14.6408 28.2844 14.7373C27.9272 14.8337 27.6015 15.022 27.3399 15.2834V15.2834Z" fill="#2DBC00"/>
<path id="Vector_4" d="M26.3015 18.587L26.2635 18.625C25.2302 19.7623 23.8266 20.4962 22.3025 20.696C21.943 20.7906 21.615 20.9787 21.3519 21.2412C21.0888 21.5037 20.9 21.8312 20.8047 22.1903C20.7094 22.5494 20.711 22.9273 20.8093 23.2856C20.9077 23.6439 21.0993 23.9697 21.3646 24.23C21.6473 24.5118 22.0039 24.7079 22.3934 24.7958C22.7829 24.8837 23.1893 24.8597 23.5657 24.7265C23.9421 24.5934 24.2731 24.3566 24.5206 24.0435C24.7681 23.7304 24.9219 23.3537 24.9643 22.957C25.2236 21.5642 25.9313 20.2943 26.9796 19.3407C27.0796 19.2508 27.1398 19.1249 27.1469 18.9907C27.1541 18.8565 27.1076 18.7249 27.0176 18.625C26.9277 18.525 26.8017 18.4649 26.6674 18.4577C26.5331 18.4506 26.4015 18.4971 26.3015 18.587V18.587Z" fill="#FFCC00"/>
<path id="Vector_5" d="M13.5119 0.330112C9.71571 0.748087 6.27448 2.36943 3.80287 4.90276C2.82057 5.90345 2.02204 7.03077 1.43267 8.2341C0.51347 10.0831 0.10463 12.1438 0.248341 14.2034C0.392052 16.2631 1.08311 18.2471 2.2502 19.9508C2.92197 20.9641 4.02468 22.2308 5.03233 23.1301L4.57606 26.7148L4.52534 26.8668C4.51265 26.9111 4.51265 26.9618 4.50634 27.0061L4.49365 27.1201L4.50634 27.2341C4.52311 27.4283 4.5889 27.6152 4.69758 27.7771C4.80625 27.939 4.95425 28.0708 5.12772 28.16C5.3012 28.2492 5.49449 28.293 5.6895 28.2872C5.88451 28.2815 6.07488 28.2264 6.2428 28.1271H6.2618L6.33151 28.0764L7.42157 27.5318L10.6727 25.8978C12.2176 26.3416 13.8183 26.5613 15.4258 26.5501C17.4135 26.5546 19.3867 26.2117 21.2563 25.5368C20.8008 25.3865 20.4102 25.0858 20.1487 24.684C19.8872 24.2822 19.7704 23.8034 19.8176 23.3264C17.8841 23.9476 15.8405 24.1505 13.8224 23.9218L13.4992 23.8774C12.7706 23.7824 12.0503 23.632 11.3445 23.4278C11.1541 23.3686 10.9537 23.3488 10.7554 23.3695C10.5571 23.3902 10.3651 23.4509 10.1911 23.5481L10.1023 23.5924L7.42794 25.1631L7.31385 25.2328C7.25048 25.2708 7.21879 25.2834 7.1871 25.2834C7.13947 25.2802 7.09498 25.2585 7.06304 25.2231C7.03111 25.1876 7.01423 25.1411 7.01598 25.0934L7.11738 24.6818L7.23782 24.2321L7.42794 23.4911L7.64976 22.6678C7.72183 22.4436 7.72144 22.2024 7.64863 21.9784C7.57582 21.7545 7.4343 21.5591 7.24413 21.4201C6.19306 20.6404 5.28046 19.6898 4.5444 18.6081C3.62175 17.267 3.0742 15.704 2.95833 14.0807C2.84245 12.4573 3.16246 10.8325 3.88528 9.3741C4.36693 8.41142 5.00068 7.51844 5.78652 6.7141C7.8145 4.6241 10.6664 3.2941 13.8224 2.95211C14.9134 2.83183 16.0143 2.83183 17.1052 2.95211C20.2423 3.31309 23.0815 4.66211 25.0968 6.73943C25.8763 7.54377 26.51 8.44943 26.979 9.41211C27.6064 10.6915 27.9233 12.0468 27.9233 13.4338C27.9233 13.5794 27.9106 13.7251 27.9042 13.8644C28.3085 13.6157 28.7848 13.5104 29.2562 13.5655C29.7277 13.6207 30.1668 13.8331 30.5026 14.1684L30.5977 14.2824C30.7604 12.2139 30.3619 10.1397 29.4443 8.27845C28.8436 7.0512 28.0522 5.92681 27.0994 4.94711C24.5054 2.34109 21.0878 0.713992 17.4284 0.34276C16.1273 0.194798 14.8139 0.190546 13.5119 0.330081V0.330112Z" fill="#0082EF"/>
</g>
</svg>
