<svg width="107" height="43" viewBox="0 0 107 43" fill="none" xmlns="http://www.w3.org/2000/svg">
<g id="Group 4062">
<path id="&#232;&#183;&#175;&#229;&#190;&#132; 4 1" d="M16.2731 23.3527C16.1806 22.625 15.8108 21.9883 15.1636 21.5336L0.554765 11.7101C0.369843 11.6192 0.184922 11.6192 0.0924608 11.8011C0 11.8921 0 11.983 0 11.983V31.175C0 32.0846 0.462304 32.9032 1.29445 33.358L17.7525 42.7267C17.9374 42.8176 18.1223 42.7267 18.2148 42.6357C18.2148 42.5447 18.3072 42.4538 18.2148 42.4538L16.2731 23.3527Z" fill="#BDCDEA"/>
<path id="&#232;&#183;&#175;&#229;&#190;&#132; 5 1" d="M20.4337 18.7145L37.7238 11.165C38.0012 10.9831 38.1861 10.7102 38.0012 10.3464C38.0012 10.2555 37.9088 10.1645 37.8163 10.1645L37.4465 9.89163L20.7111 0.341091C19.9714 -0.113697 18.9543 -0.113697 18.2146 0.341091L1.29431 9.89163C1.10939 9.98259 1.01693 10.0735 0.924465 10.1645C0.647082 10.3464 0.647082 10.8012 0.832004 10.9831C0.924465 11.0741 0.924465 11.165 1.01693 11.165L18.3995 18.7145C19.0468 18.9874 19.7865 18.9874 20.4337 18.7145Z" fill="#D7E4FF"/>
<path id="&#232;&#183;&#175;&#229;&#190;&#132; 6 1" d="M22.1919 23.6244L20.1577 42.6345C20.1577 42.8165 20.2502 42.9984 20.4351 42.9984C20.5276 42.9984 20.5276 42.9984 20.62 42.9984L37.5403 33.3569C38.28 32.9021 38.8348 32.0835 38.8348 31.1739V12.0728C38.8348 11.8909 38.6499 11.709 38.4649 11.709C38.3725 11.709 38.3725 11.709 38.28 11.7999L23.3014 21.8962C22.7466 22.2601 22.2843 22.8968 22.1919 23.6244Z" fill="white"/>
<g id="Group 2032">
<path id="Vector" d="M67.5425 34.9404L65.8845 32.3043C65.1193 32.8064 64.4816 33.4341 63.9714 33.8106L62.5685 31.6767C62.8236 31.4257 62.9511 31.1746 63.0787 30.9236C63.2062 30.6725 63.2062 30.2959 63.2062 29.9194V27.2834H61.0381V27.911C61.0381 29.4173 60.783 30.6725 60.4004 31.6767C60.0177 32.6809 59.2525 33.6851 58.2322 34.8148C57.5945 33.9362 56.9568 33.183 56.3191 32.4299V34.8148H53.5133V25.6515C52.8756 26.4047 52.2379 27.1578 51.7277 27.6599C51.6002 27.0323 51.3451 26.1536 51.09 25.0239C50.9625 24.7729 50.835 24.5218 50.835 24.3963C51.8553 23.3921 52.748 22.2624 53.5133 21.1326C54.2785 20.0029 55.0437 18.6221 55.6814 17.1158L57.8496 18.4966V12.0949H59.7627V16.2372H61.0381V10.3375H63.5888V16.2372H64.8642V12.0949H66.9048V18.12C67.415 17.1158 67.9251 15.8606 68.3078 14.6054C68.6904 13.3501 69.073 11.8438 69.4556 9.96094L72.2615 10.3375C71.8788 11.8438 71.4962 13.0991 71.2412 14.2288H75.9601V17.1158H74.9398C74.8122 19.3753 74.5572 21.3837 74.1745 23.0155C73.7919 24.7729 73.2818 26.2792 72.6441 27.6599C73.4093 28.9152 74.5572 30.1704 76.0876 31.5512C75.5775 32.6809 75.0673 33.6851 74.6847 34.6893C73.2818 33.3085 72.1339 31.9278 71.1136 30.547C70.3484 31.8022 69.2005 33.3085 67.5425 34.9404ZM52.2379 19.1242C52.1103 18.4966 51.7277 17.7435 51.3451 16.7393C51.2176 16.3627 51.09 16.1117 50.9625 15.9861C51.8553 15.1075 52.748 14.2288 53.3857 13.3501C54.151 12.4714 54.7887 11.3417 55.4264 10.0865L57.8496 11.8438C56.9568 13.4756 56.064 14.7309 55.1713 15.8606C54.2785 16.9903 53.3857 18.12 52.2379 19.1242ZM56.3191 32.4299C57.2119 31.6767 57.7221 30.9236 57.9771 30.0449C58.2322 29.2918 58.3597 28.0365 58.3597 26.4047V24.7729H65.8845V29.1662C66.0121 29.0407 66.2671 28.9152 66.5222 28.6641C67.0324 28.2876 67.2875 28.0365 67.5425 27.7855C67.5425 28.6641 67.6701 29.4173 67.6701 30.1704C68.4353 29.4173 69.073 28.5386 69.5831 27.6599C68.8179 25.9026 68.3078 23.7687 68.0527 21.3837L67.415 22.3879C67.2875 22.2624 67.1599 21.8858 67.0324 21.3837C66.9048 21.1326 66.9048 21.0071 66.7773 20.8816V23.141H57.8496V20.505H66.6498L66.1396 19.3753L66.3947 18.8732H57.8496C57.467 19.6263 56.9568 20.505 56.3191 21.7603V32.4299ZM71.2412 24.3963C71.8788 22.6389 72.2615 20.254 72.5165 17.1158H70.3484C70.3484 17.2414 70.2208 17.3669 70.0933 17.6179C70.3484 20.3795 70.731 22.6389 71.2412 24.3963Z" fill="white"/>
<path id="Vector_2" d="M84.1247 35.0659C83.9972 34.9404 83.8696 34.8148 83.6145 34.5638C82.8493 33.8106 82.3392 33.183 81.9565 32.8064C82.4667 31.6767 82.8493 30.547 82.9769 29.5428C83.1044 28.5386 83.2319 26.9068 83.2319 24.8984V15.484H90.5016V25.9026C92.4147 25.1494 93.6901 24.3963 94.5829 23.6431H91.1393V21.5092H96.2409C96.496 21.2582 96.751 20.7561 96.8786 20.3795H91.9046V18.12H94.3278C94.0727 17.869 93.5626 17.3669 92.7973 16.7393C92.5423 16.6137 92.4147 16.3627 92.2872 16.3627L94.2003 15.1075C95.093 15.8606 95.9858 16.4882 96.6235 17.1158L95.093 18.12H97.2612C97.3887 17.3669 97.3887 16.3627 97.3887 15.233H100.322C100.322 16.3627 100.195 17.3669 100.195 18.12H102.235L101.087 17.1158C101.853 16.4882 102.618 15.7351 103.511 14.8564L105.296 16.3627C104.658 16.9903 103.893 17.6179 103.256 18.12H105.934V20.254H99.812C99.6844 20.6305 99.5569 21.0071 99.4293 21.3837H106.572V23.7687H102.745C103.256 24.2708 103.893 24.6473 104.531 25.0239C105.169 25.4005 106.061 25.6515 106.954 25.9026L106.189 28.4131C106.189 28.4131 106.061 28.4131 106.061 28.2875C105.296 28.0365 104.786 27.7855 104.531 27.6599C103.766 28.162 103 28.5386 102.108 29.0407C103.638 29.6683 105.296 30.4215 106.954 31.1746L105.679 33.5596C104.786 33.0575 103.638 32.4299 102.235 31.6767C101.47 31.3001 100.96 31.0491 100.577 30.798L101.98 29.0407L100.705 27.4089L102.618 26.2792C101.597 25.526 100.832 24.6473 100.067 23.6431H98.5366C97.7713 24.5218 96.8786 25.4005 95.4756 26.2792L97.3887 27.1578L96.2409 28.7896C96.496 29.4173 96.8786 29.9194 97.3887 30.4215C96.6235 30.798 95.3481 31.3001 93.8176 32.0533C93.0524 32.4299 92.5423 32.6809 92.0321 32.932L90.7567 30.798C92.5423 30.1704 94.0727 29.4173 95.4756 28.9152C95.3481 28.7896 95.2206 28.7896 94.9655 28.6641C94.2003 28.2875 93.5626 27.911 93.1799 27.6599L91.5219 28.5386C91.3944 28.2875 91.2669 28.0365 91.0118 27.5344C90.8843 27.1578 90.7567 26.7813 90.6292 26.6557V32.1788C90.6292 32.932 90.5016 33.5596 90.119 33.9362C89.8639 34.3127 89.3538 34.5638 88.5886 34.5638C87.6958 34.5638 86.9306 34.6893 86.1653 34.6893C86.1653 34.5638 86.0378 34.4383 86.0378 34.1872C85.7827 33.3085 85.6552 32.6809 85.5276 32.3043C85.9102 32.3043 86.4204 32.3043 87.0581 32.3043C87.6958 32.3043 87.9509 32.0533 87.9509 31.4257V28.162H85.9102C85.7827 29.5428 85.6552 30.798 85.4001 31.8022C85.145 32.6809 84.7624 33.8106 84.1247 35.0659ZM88.9712 15.1075V13.9777H82.2116V11.4672H88.9712V9.96094H92.1596V11.5928H96.8786V9.96094H100.067V11.5928H106.827V14.1033H100.067V14.9819H96.8786V13.9777H92.1596V14.9819H88.9712V15.1075ZM86.0378 20.7561H87.9509V17.9945H86.0378V20.7561ZM86.0378 25.7771H87.9509V23.0155H86.0378V24.7729V25.7771ZM94.838 34.5638C94.838 34.3127 94.7104 34.0617 94.5829 33.6851C94.4553 33.0575 94.3278 32.6809 94.2003 32.3043C94.7104 32.3043 95.3481 32.3043 96.2409 32.3043C96.6235 32.3043 97.0061 32.1788 97.1336 32.0533C97.2612 31.9278 97.3887 31.5512 97.3887 31.1746V25.1494H100.195V31.8022C100.195 32.6809 99.9395 33.3085 99.5569 33.8106C99.1743 34.3127 98.5366 34.5638 97.6438 34.5638C97.0061 34.5638 96.1133 34.5638 94.838 34.5638Z" fill="white"/>
</g>
</g>
</svg>
